<svg xmlns="http://www.w3.org/2000/svg" viewBox="0 0 1200 1000">
<defs>
<linearGradient id="bg" x1="0" y1="0" x2="1" y2="1"><stop offset="0" stop-color="#fffaf4"/><stop offset=".55" stop-color="#f3e3dc"/><stop offset="1" stop-color="#ddc3b6"/></linearGradient>
<radialGradient id="glow" cx="60%" cy="40%" r="58%"><stop offset="0" stop-color="#fff7d7" stop-opacity=".9"/><stop offset=".5" stop-color="#f2c879" stop-opacity=".22"/><stop offset="1" stop-color="#ffffff" stop-opacity="0"/></radialGradient>
<linearGradient id="crystal" x1="0" y1="0" x2="1" y2="1"><stop offset="0" stop-color="#ffffff"/><stop offset=".45" stop-color="#f6e8ee"/><stop offset="1" stop-color="#d7bca5"/></linearGradient>
<linearGradient id="gold" x1="0" y1="0" x2="1" y2="1"><stop offset="0" stop-color="#f5dba8"/><stop offset=".5" stop-color="#b98945"/><stop offset="1" stop-color="#fff0c7"/></linearGradient>
<filter id="shadow"><feDropShadow dx="0" dy="24" stdDeviation="24" flood-color="#73523e" flood-opacity=".18"/></filter>
<filter id="blur"><feGaussianBlur stdDeviation="18"/></filter>
</defs>
<rect width="1200" height="1000" fill="url(#bg)"/>
<circle cx="900" cy="190" r="330" fill="url(#glow)"/>
<circle cx="270" cy="780" r="280" fill="#fff" opacity=".3" filter="url(#blur)"/>
<path d="M270 705 C370 520, 612 410, 866 460 C1054 497, 1128 628, 1045 752 C940 908, 600 912, 380 824 C292 789, 229 780, 270 705Z" fill="#d7a994" opacity=".72"/>
<path d="M326 686 C425 552, 612 486, 817 520 C954 543, 1014 633, 940 721 C847 830, 604 835, 425 770 C351 743, 291 733, 326 686Z" fill="#f0c7b7" opacity=".75"/>
<g transform="translate(286 284) rotate(-10)" filter="url(#shadow)">
<ellipse cx="378" cy="250" rx="350" ry="145" fill="none" stroke="rgba(255,255,255,.64)" stroke-width="30"/>
<ellipse cx="378" cy="250" rx="344" ry="138" fill="none" stroke="url(#gold)" stroke-width="14" opacity=".85"/>
<circle cx="42" cy="242" r="47" fill="url(#crystal)" stroke="#fff" stroke-width="4"/>
<circle cx="112" cy="161" r="48" fill="#f1d9ae" stroke="#fff" stroke-width="4"/>
<circle cx="212" cy="112" r="49" fill="url(#crystal)" stroke="#fff" stroke-width="4"/>
<circle cx="328" cy="93" r="48" fill="#f7e4d7" stroke="#fff" stroke-width="4"/>
<circle cx="452" cy="104" r="49" fill="url(#crystal)" stroke="#fff" stroke-width="4"/>
<circle cx="560" cy="156" r="48" fill="#f1d9ae" stroke="#fff" stroke-width="4"/>
<circle cx="686" cy="248" r="47" fill="url(#crystal)" stroke="#fff" stroke-width="4"/>
<circle cx="594" cy="342" r="48" fill="#f7e4d7" stroke="#fff" stroke-width="4"/>
<circle cx="466" cy="388" r="49" fill="url(#crystal)" stroke="#fff" stroke-width="4"/>
<circle cx="326" cy="396" r="48" fill="#f1d9ae" stroke="#fff" stroke-width="4"/>
<circle cx="198" cy="364" r="48" fill="url(#crystal)" stroke="#fff" stroke-width="4"/>
<circle cx="96" cy="321" r="47" fill="#f7e4d7" stroke="#fff" stroke-width="4"/>
<g fill="url(#gold)">
<rect x="73" y="185" width="15" height="64" rx="8" transform="rotate(42 80 217)"/><rect x="158" y="119" width="15" height="64" rx="8" transform="rotate(62 165 151)"/><rect x="266" y="86" width="15" height="64" rx="8" transform="rotate(78 273 118)"/><rect x="390" y="87" width="15" height="64" rx="8" transform="rotate(99 397 119)"/><rect x="506" y="122" width="15" height="64" rx="8" transform="rotate(117 513 154)"/><rect x="632" y="185" width="15" height="64" rx="8" transform="rotate(135 640 217)"/><rect x="528" y="337" width="15" height="64" rx="8" transform="rotate(236 536 369)"/><rect x="392" y="376" width="15" height="64" rx="8" transform="rotate(260 400 408)"/><rect x="259" y="373" width="15" height="64" rx="8" transform="rotate(280 266 405)"/><rect x="139" y="329" width="15" height="64" rx="8" transform="rotate(302 146 361)"/>
</g>
</g>
<g opacity=".58" stroke="#fff" stroke-width="2" fill="none"><path d="M92 150 L150 52 L206 150 Z"/><path d="M150 52 L150 202"/><path d="M92 150 L150 202 L206 150"/><path d="M970 820 L1032 718 L1088 820 Z"/><path d="M1032 718 L1032 876"/><path d="M970 820 L1032 876 L1088 820"/></g>
</svg>