<svg xmlns="http://www.w3.org/2000/svg" viewBox="0 0 700 700">
<defs>
<linearGradient id="bg" x1="0" y1="0" x2="1" y2="1"><stop offset="0" stop-color="#fffaf5"/><stop offset="1" stop-color="#e8f1f3"/></linearGradient>
<linearGradient id="gold" x1="0" y1="0" x2="1" y2="1"><stop offset="0" stop-color="#f6ddad"/><stop offset=".55" stop-color="#b9a17d"/><stop offset="1" stop-color="#fff1ce"/></linearGradient>
<filter id="shadow"><feDropShadow dx="0" dy="18" stdDeviation="18" flood-color="#73523e" flood-opacity=".16"/></filter>
<radialGradient id="glow"><stop offset="0" stop-color="#fff" stop-opacity=".86"/><stop offset="1" stop-color="#fff" stop-opacity="0"/></radialGradient>
</defs>
<rect width="700" height="700" rx="45" fill="url(#bg)"/>
<circle cx="128" cy="110" r="105" fill="#fff" opacity=".52"/>
<circle cx="585" cy="570" r="155" fill="#fff" opacity=".42"/>
<circle cx="350" cy="348" r="240" fill="url(#glow)" opacity=".6"/>
<g filter="url(#shadow)">
<ellipse cx="350" cy="348" rx="238" ry="154" fill="none" stroke="#d3ad71" stroke-width="12" opacity=".28"/>
<circle cx="350.0" cy="203.0" r="34" fill="#f7fbff" stroke="#fff" stroke-width="5" opacity=".98"/><circle cx="447.6" cy="217.4" r="31" fill="#dceef6" stroke="#fff" stroke-width="5" opacity=".98"/><circle cx="525.9" cy="257.6" r="31" fill="#b8d7df" stroke="#fff" stroke-width="5" opacity=".98"/><circle cx="569.4" cy="315.7" r="34" fill="#ffffff" stroke="#fff" stroke-width="5" opacity=".98"/><circle cx="569.4" cy="380.3" r="31" fill="#dde9ee" stroke="#fff" stroke-width="5" opacity=".98"/><circle cx="525.9" cy="438.4" r="31" fill="#b7cad3" stroke="#fff" stroke-width="5" opacity=".98"/><circle cx="447.6" cy="478.6" r="34" fill="#f7fbff" stroke="#fff" stroke-width="5" opacity=".98"/><circle cx="350.0" cy="493.0" r="31" fill="#e6f2f7" stroke="#fff" stroke-width="5" opacity=".98"/><circle cx="252.4" cy="478.6" r="31" fill="#c3d7dd" stroke="#fff" stroke-width="5" opacity=".98"/><circle cx="174.1" cy="438.4" r="34" fill="#ffffff" stroke="#fff" stroke-width="5" opacity=".98"/><circle cx="130.6" cy="380.3" r="31" fill="#d9e8ef" stroke="#fff" stroke-width="5" opacity=".98"/><circle cx="130.6" cy="315.7" r="31" fill="#b7cbd6" stroke="#fff" stroke-width="5" opacity=".98"/><circle cx="174.1" cy="257.6" r="34" fill="#f7fbff" stroke="#fff" stroke-width="5" opacity=".98"/><circle cx="252.4" cy="217.4" r="31" fill="#e6f2f7" stroke="#fff" stroke-width="5" opacity=".98"/>
<rect x="483.3" y="211.6" width="14" height="46" rx="7" fill="url(#gold)" transform="rotate(38.6 490.3 234.6)"/><rect x="483.3" y="438.4" width="14" height="46" rx="7" fill="url(#gold)" transform="rotate(141.4 490.3 461.4)"/><rect x="140.3" y="387.9" width="14" height="46" rx="7" fill="url(#gold)" transform="rotate(244.3 147.3 410.9)"/><rect x="292.9" y="183.6" width="14" height="46" rx="7" fill="url(#gold)" transform="rotate(347.1 299.9 206.6)"/>
</g>
<text x="350" y="650" text-anchor="middle" font-family="Georgia,serif" font-size="36" fill="#3c302a">Moonlight Bracelet</text>
</svg>