<svg xmlns="http://www.w3.org/2000/svg" viewBox="0 0 700 480"><rect width="700" height="480" rx="40" fill="#fff8ef"/><g fill="#c69b5f" stroke="#fff" stroke-width="6" transform="translate(350 240)"><circle cx="-150" cy="0" r="54"/><path d="M-150 -120 L-124 -48 L-50 -74 L-88 -5 L-24 38 L-100 44 L-105 120 L-150 58 L-195 120 L-200 44 L-276 38 L-212 -5 L-250 -74 L-176 -48Z"/><path d="M80 -105 C145 -55 145 55 80 105 C132 86 176 44 176 0 C176 -44 132 -86 80 -105Z"/><circle cx="180" cy="78" r="35"/><path d="M70 -10 L115 20 L160 -10 L145 45 L190 78 L134 82 L115 136 L96 82 L40 78 L85 45Z"/></g><text x="350" y="430" text-anchor="middle" font-family="Georgia,serif" font-size="42" fill="#3c302a">Pick Your Charm</text></svg>