<svg xmlns="http://www.w3.org/2000/svg" viewBox="0 0 700 480">
<defs><linearGradient id="bg" x1="0" y1="0" x2="1" y2="1"><stop offset="0" stop-color="#fff8ef"/><stop offset="1" stop-color="#f1e5de"/></linearGradient><linearGradient id="gold" x1="0" y1="0" x2="1" y2="1"><stop offset="0" stop-color="#f4d9a3"/><stop offset=".6" stop-color="#b98d55"/><stop offset="1" stop-color="#fff1cc"/></linearGradient></defs>
<rect width="700" height="480" rx="40" fill="url(#bg)"/>
<g transform="translate(350 210)"><ellipse cx="0" cy="0" rx="210" ry="82" fill="none" stroke="#c9a064" stroke-width="10" opacity=".25"/>
<g stroke="#fff" stroke-width="5"><circle cx="-200" cy="0" r="34" fill="#fff6f8"/><circle cx="-150" cy="-46" r="34" fill="#ecd2da"/><circle cx="-82" cy="-70" r="35" fill="#d8c3ea"/><circle cx="0" cy="-78" r="35" fill="#fff"/><circle cx="82" cy="-70" r="35" fill="#e4d4b1"/><circle cx="150" cy="-46" r="34" fill="#cbdedc"/><circle cx="200" cy="0" r="34" fill="#fff6f8"/><circle cx="150" cy="46" r="34" fill="#e4d4b1"/><circle cx="82" cy="70" r="35" fill="#fff"/><circle cx="0" cy="78" r="35" fill="#d8c3ea"/><circle cx="-82" cy="70" r="35" fill="#cbdedc"/><circle cx="-150" cy="46" r="34" fill="#ecd2da"/></g>
<g fill="url(#gold)"><rect x="-123" y="-84" width="14" height="42" rx="7" transform="rotate(68 -116 -63)"/><rect x="-26" y="-96" width="14" height="42" rx="7" transform="rotate(88 -19 -75)"/><rect x="112" y="-84" width="14" height="42" rx="7" transform="rotate(112 119 -63)"/><rect x="112" y="42" width="14" height="42" rx="7" transform="rotate(248 119 63)"/><rect x="-26" y="54" width="14" height="42" rx="7" transform="rotate(268 -19 75)"/><rect x="-123" y="42" width="14" height="42" rx="7" transform="rotate(292 -116 63)"/></g></g>
<text x="350" y="425" text-anchor="middle" font-family="Georgia,serif" font-size="40" fill="#3c302a">Select Bead Style</text></svg>