<svg xmlns="http://www.w3.org/2000/svg" viewBox="0 0 700 700"><defs><linearGradient id="bg" x1="0" y1="0" x2="1" y2="1"><stop offset="0" stop-color="#fffaf5"/><stop offset="1" stop-color="#f4e5d9"/></linearGradient><filter id="shadow"><feDropShadow dx="0" dy="16" stdDeviation="18" flood-color="#73523e" flood-opacity=".18"/></filter><linearGradient id="gold" x1="0" y1="0" x2="1" y2="1"><stop offset="0" stop-color="#f7dba5"/><stop offset=".5" stop-color="#b98642"/><stop offset="1" stop-color="#fff1ce"/></linearGradient></defs><rect width="700" height="700" rx="45" fill="url(#bg)"/><circle cx="145" cy="90" r="92" fill="#fff" opacity=".55"/><circle cx="580" cy="590" r="150" fill="#fff" opacity=".38"/><g filter="url(#shadow)"><ellipse cx="350" cy="335" rx="236" ry="153" fill="none" stroke="#d3ad71" stroke-width="14" opacity=".45"/><circle cx="555.0" cy="335.0" r="32" fill="#f5c88c" stroke="#fff" stroke-width="4" opacity=".97"/><circle cx="542.6" cy="379.5" r="32" fill="#f8e5c2" stroke="#fff" stroke-width="4" opacity=".97"/><rect x="570.6" y="355.5" width="12" height="48" rx="6" fill="url(#gold)" transform="rotate(110.0 576.6 379.5)"/><circle cx="507.0" cy="418.6" r="32" fill="#fff6e9" stroke="#fff" stroke-width="4" opacity=".97"/><circle cx="452.5" cy="447.6" r="32" fill="#f5c88c" stroke="#fff" stroke-width="4" opacity=".97"/><circle cx="385.6" cy="463.0" r="32" fill="#f8e5c2" stroke="#fff" stroke-width="4" opacity=".97"/><rect x="413.6" y="439.0" width="12" height="48" rx="6" fill="url(#gold)" transform="rotate(170.0 419.6 463.0)"/><circle cx="314.4" cy="463.0" r="32" fill="#fff6e9" stroke="#fff" stroke-width="4" opacity=".97"/><circle cx="247.5" cy="447.6" r="32" fill="#f5c88c" stroke="#fff" stroke-width="4" opacity=".97"/><circle cx="193.0" cy="418.6" r="32" fill="#f8e5c2" stroke="#fff" stroke-width="4" opacity=".97"/><rect x="221.0" y="394.6" width="12" height="48" rx="6" fill="url(#gold)" transform="rotate(230.0 227.0 418.6)"/><circle cx="157.4" cy="379.5" r="32" fill="#fff6e9" stroke="#fff" stroke-width="4" opacity=".97"/><circle cx="145.0" cy="335.0" r="32" fill="#f5c88c" stroke="#fff" stroke-width="4" opacity=".97"/><circle cx="157.4" cy="290.5" r="32" fill="#f8e5c2" stroke="#fff" stroke-width="4" opacity=".97"/><rect x="185.4" y="266.5" width="12" height="48" rx="6" fill="url(#gold)" transform="rotate(290.0 191.4 290.5)"/><circle cx="193.0" cy="251.4" r="32" fill="#fff6e9" stroke="#fff" stroke-width="4" opacity=".97"/><circle cx="247.5" cy="222.4" r="32" fill="#f5c88c" stroke="#fff" stroke-width="4" opacity=".97"/><circle cx="314.4" cy="207.0" r="32" fill="#f8e5c2" stroke="#fff" stroke-width="4" opacity=".97"/><rect x="342.4" y="183.0" width="12" height="48" rx="6" fill="url(#gold)" transform="rotate(350.0 348.4 207.0)"/><circle cx="385.6" cy="207.0" r="32" fill="#fff6e9" stroke="#fff" stroke-width="4" opacity=".97"/><circle cx="452.5" cy="222.4" r="32" fill="#f5c88c" stroke="#fff" stroke-width="4" opacity=".97"/><circle cx="507.0" cy="251.4" r="32" fill="#f8e5c2" stroke="#fff" stroke-width="4" opacity=".97"/><rect x="535.0" y="227.4" width="12" height="48" rx="6" fill="url(#gold)" transform="rotate(410.0 541.0 251.4)"/><circle cx="542.6" cy="290.5" r="32" fill="#fff6e9" stroke="#fff" stroke-width="4" opacity=".97"/><g transform="translate(350 507)"><line x1="0" y1="-38" x2="0" y2="0" stroke="url(#gold)" stroke-width="6"/><circle cx="0" cy="34" r="38" fill="url(#gold)" stroke="#fff5df" stroke-width="6"/><path d="M0 2 L9 28 L36 30 L12 43 L20 69 L0 52 L-20 69 L-12 43 L-36 30 L-9 28Z" fill="#fffaf0"/></g></g></svg>